<?xml version="1.0" encoding="UTF-8"?>
<!DOCTYPE svg PUBLIC "-//W3C//DTD SVG 1.1//EN" "http://www.w3.org/Graphics/SVG/1.1/DTD/svg11.dtd">
<!-- Creator: CorelDRAW 2017 -->
<svg xmlns="http://www.w3.org/2000/svg" xml:space="preserve" width="400mm" height="400mm" version="1.1" style="shape-rendering:geometricPrecision; text-rendering:geometricPrecision; image-rendering:optimizeQuality; fill-rule:evenodd; clip-rule:evenodd"
viewBox="0 0 40000 40000"
 xmlns:xlink="http://www.w3.org/1999/xlink">
 <defs>
  <style type="text/css">
   <![CDATA[
    .str0 {stroke:#2B2A29;stroke-width:20}
    .str1 {stroke:black;stroke-width:60;stroke-linejoin:bevel}
    .fil2 {fill:none}
    .fil1 {fill:#2B2A29}
    .fil0 {fill:#7688A1}
   ]]>
  </style>
 </defs>
 <g id="Слой_x0020_1">
  <metadata id="CorelCorpID_0Corel-Layer"/>
  <path class="fil0 str0" d="M5063 8495l28911 0c1148,0 2210,-612 2782,-1606 574,-994 574,-2219 0,-3212 -572,-994 -1634,-1606 -2782,-1606l-28911 0c-1146,0 -2208,612 -2782,1606 -574,994 -574,2219 0,3212 574,994 1636,1606 2782,1606z"/>
  <path class="fil0 str0" d="M5063 18132l28911 0c1148,0 2210,-612 2782,-1606 574,-994 574,-2219 0,-3212 -572,-994 -1634,-1606 -2782,-1606l-28911 0c-1146,0 -2208,612 -2782,1606 -574,994 -574,2219 0,3212 574,994 1636,1606 2782,1606z"/>
  <path class="fil0 str0" d="M5063 27769l11243 0c1148,0 2210,-612 2782,-1606 574,-994 574,-2219 0,-3212 -572,-994 -1634,-1606 -2782,-1606l-11243 0c-1146,0 -2208,612 -2782,1606 -574,994 -574,2219 0,3212 574,994 1636,1606 2782,1606z"/>
  <path class="fil1 str0" d="M16306 30981l-11243 0c-1146,0 -2208,612 -2782,1606 -574,994 -574,2219 0,3212 574,994 1636,1606 2782,1606l11243 0c1148,0 2210,-612 2782,-1606 574,-994 574,-2219 0,-3212 -572,-994 -1634,-1606 -2782,-1606z"/>
  <path class="fil0 str0" d="M5063 27769l11243 0c1148,0 2210,-612 2782,-1606 574,-994 574,-2219 0,-3212 -572,-994 -1634,-1606 -2782,-1606l-11243 0c-1146,0 -2208,612 -2782,1606 -574,994 -574,2219 0,3212 574,994 1636,1606 2782,1606z"/>
  <path class="fil1 str0" d="M5063 27769l11243 0c1148,0 2210,-612 2782,-1606 574,-994 574,-2219 0,-3212 -572,-994 -1634,-1606 -2782,-1606l-11243 0c-1146,0 -2208,612 -2782,1606 -574,994 -574,2219 0,3212 574,994 1636,1606 2782,1606z"/>
  <path class="fil1 str0" d="M5063 18132l28911 0c1148,0 2210,-612 2782,-1606 574,-994 574,-2219 0,-3212 -572,-994 -1634,-1606 -2782,-1606l-28911 0c-1146,0 -2208,612 -2782,1606 -574,994 -574,2219 0,3212 574,994 1636,1606 2782,1606z"/>
  <path class="fil1 str0" d="M5063 8495l28911 0c1148,0 2210,-612 2782,-1606 574,-994 574,-2219 0,-3212 -572,-994 -1634,-1606 -2782,-1606l-28911 0c-1146,0 -2208,612 -2782,1606 -574,994 -574,2219 0,3212 574,994 1636,1606 2782,1606z"/>
 </g>
 <g id="Слой1">
  <metadata id="CorelCorpID_1Corel-Layer"/>
  <path class="fil2 str1" d="M5063 30981c-1146,0 -2208,612 -2782,1606 -574,994 -574,2219 0,3212 574,994 1636,1606 2782,1606"/>
  <path class="fil2 str1" d="M5063 21344c-1146,0 -2208,612 -2782,1606 -574,994 -574,2219 0,3212 574,994 1636,1606 2782,1606"/>
  <path class="fil2 str1" d="M5063 11707c-1146,0 -2208,612 -2782,1606 -574,994 -574,2219 0,3212 574,994 1636,1606 2782,1606"/>
  <path class="fil2 str1" d="M5063 2070c-1146,0 -2208,612 -2782,1606 -574,994 -574,2219 0,3212 574,994 1636,1606 2782,1606"/>
  <path class="fil2 str1" d="M33974 18132c1148,0 2210,-612 2782,-1606 574,-994 574,-2219 0,-3212 -572,-994 -1634,-1606 -2782,-1606"/>
  <line class="fil2 str1" x1="33974" y1="11707" x2="5063" y2= "11707" />
  <line class="fil2 str1" x1="33974" y1="18132" x2="5063" y2= "18132" />
  <path class="fil2 str1" d="M33974 8495c1148,0 2210,-612 2782,-1606 574,-994 574,-2219 0,-3212 -572,-994 -1634,-1606 -2782,-1606"/>
  <line class="fil2 str1" x1="33974" y1="2070" x2="5063" y2= "2070" />
  <line class="fil2 str1" x1="33974" y1="8495" x2="5063" y2= "8495" />
  <path class="fil2 str1" d="M16306 37406c1148,0 2210,-612 2782,-1606 574,-994 574,-2219 0,-3212 -572,-994 -1634,-1606 -2782,-1606"/>
  <line class="fil2 str1" x1="5063" y1="30981" x2="16306" y2= "30981" />
  <line class="fil2 str1" x1="5063" y1="37406" x2="16306" y2= "37406" />
  <path class="fil2 str1" d="M16306 27769c1148,0 2210,-612 2782,-1606 574,-994 574,-2219 0,-3212 -572,-994 -1634,-1606 -2782,-1606"/>
  <line class="fil2 str1" x1="5063" y1="21344" x2="16306" y2= "21344" />
  <line class="fil2 str1" x1="5063" y1="27769" x2="16306" y2= "27769" />
 </g>
</svg>
