<?xml version="1.0" encoding="UTF-8"?>
<!DOCTYPE svg PUBLIC "-//W3C//DTD SVG 1.1//EN" "http://www.w3.org/Graphics/SVG/1.1/DTD/svg11.dtd">
<!-- Creator: CorelDRAW 2017 -->
<svg xmlns="http://www.w3.org/2000/svg" xml:space="preserve" width="1200mm" height="400mm" version="1.1" style="shape-rendering:geometricPrecision; text-rendering:geometricPrecision; image-rendering:optimizeQuality; fill-rule:evenodd; clip-rule:evenodd"
viewBox="0 0 120000 40000"
 xmlns:xlink="http://www.w3.org/1999/xlink">
 <defs>
  <style type="text/css">
   <![CDATA[
    .fil0 {fill:black}
   ]]>
  </style>
 </defs>
 <g id="Слой_x0020_1">
  <metadata id="CorelCorpID_0Corel-Layer"/>
  <g id="_89TPiX01.svg">
   <g>
    <path class="fil0" d="M38393 7809c-5139,1796 -8359,6811 -8421,12879 0,11517 13003,17585 21919,10216 3096,-2539 4706,-6068 4706,-10402 0,-9659 -9040,-15975 -18204,-12693l0 0zm9597 4210c7678,5139 4334,18390 -4644,18390 -5325,0 -9040,-4087 -9040,-9907 0,-2291 372,-4087 1238,-5449 2662,-4334 8359,-5758 12446,-3034l0 0z"/>
    <path class="fil0" d="M7062 20440l0 13065 2167 0 2167 0 0 -4272 0 -4210 4891 -310c4148,-248 5263,-557 7121,-1981 4458,-3344 4396,-9783 -62,-13189 -2105,-1610 -2724,-1734 -9288,-1981l-6997 -186 0 13065 0 0zm13932 -7678c991,929 1548,2229 1548,3406 0,1176 -557,2477 -1548,3406 -1300,1362 -2043,1548 -5573,1548l-4025 0 0 -4953 0 -4953 4025 0c3529,0 4272,186 5573,1548z"/>
    <polygon class="fil0" points="61550,20502 61550,33505 70219,33505 78887,33505 78887,31648 78887,29790 72386,29790 65884,29790 65884,18645 65884,7500 63717,7500 61550,7500 "/>
    <path class="fil0" d="M82602 20502l0 13003 2167 0 2167 0 0 -5573 0 -5573 2415 0c2291,0 2477,186 6316,5573 3839,5511 3901,5573 6563,5573l2601 0 -4891 -6501c-2724,-3591 -4953,-6625 -4953,-6811 0,-248 2043,-3158 4582,-6501l4644 -6192 -2601 0c-2601,62 -2662,62 -6316,5573 -3591,5325 -3839,5511 -6006,5573l-2353 0 0 -5573 0 -5573 -2167 0 -2167 0 0 13003 0 0z"/>
    <polygon class="fil0" points="108608,20502 108608,33505 110651,33505 112633,33505 112633,20502 112633,7500 110651,7500 108608,7500 "/>
   </g>
  </g>
 </g>
</svg>
